 <svg  version="1.0" xmlns="http://www.w3.org/2000/svg"  width="300.000000pt" height="300.000000pt" viewBox="0 0 300.000000 300.000000"  preserveAspectRatio="xMidYMid meet">  <g transform="translate(0.000000,300.000000) scale(0.100000,-0.100000)" fill="#00c203" stroke="none"> <path d="M1430 2937 c-3 -2 -39 -7 -80 -10 -127 -10 -306 -56 -408 -105 -40 -19 -41 -19 -58 -1 -40 44 -137 49 -192 10 -89 -63 -76 -208 22 -255 104 -49 216 20 216 132 0 29 1 52 3 52 2 0 50 16 106 36 164 57 294 79 461 79 231 0 432 -50 648 -162 102 -53 130 -56 70 -9 -34 27 -28 37 6 11 32 -24 56 -18 26 6 -91 76 -367 176 -560 203 -60 9 -255 19 -260 13z m205 -31 c79 -6 193 -27 250 -47 17 -6 37 -11 45 -11 8 -1 17 -4 20 -7 3 -3 23 -12 45 -20 22 -7 58 -22 79 -32 22 -11 45 -19 50 -19 12 0 65 -39 54 -40 -11 0 -62 23 -78 36 -8 6 -46 22 -85 34 -38 12 -83 28 -100 35 -27 12 -156 44 -210 52 -11 2 -103 4 -205 5 -158 1 -199 -2 -285 -21 -55 -12 -110 -27 -122 -33 -11 -6 -27 -7 -34 -2 -14 8 7 16 96 35 115 25 194 36 260 38 38 1 71 4 73 5 2 2 17 2 35 0 18 -1 68 -5 112 -8z m-850 -87 c-51 -6 -107 -30 -106 -45 1 -5 -2 -24 -5 -43 -8 -40 15 -93 50 -116 75 -49 170 5 169 97 -1 38 -25 88 -43 88 -6 0 -10 5 -10 11 0 7 10 5 25 -5 32 -21 49 -20 118 8 31 13 59 21 61 17 3 -4 -19 -15 -47 -25 -71 -25 -87 -41 -87 -89 0 -83 -71 -145 -151 -132 -42 7 -89 47 -89 76 0 10 -5 21 -10 24 -6 4 -8 9 -6 13 2 4 7 24 10 46 8 49 10 52 49 70 38 18 75 24 102 16 12 -3 0 -7 -30 -11z m60 -44 c35 -34 35 -96 0 -130 -37 -38 -95 -35 -129 6 -33 39 -33 79 0 118 34 41 92 44 129 6z"/> <path d="M2262 2847 c-7 -8 -7 -31 3 -75 13 -66 25 -91 25 -54 0 11 4 23 9 27 10 6 31 -96 22 -107 -7 -8 -182 -41 -187 -35 -2 2 15 9 38 16 81 25 86 32 18 26 -35 -3 -70 -11 -78 -18 -17 -18 -5 -47 20 -47 35 0 193 33 206 43 13 10 12 35 -7 119 -6 24 -12 55 -15 70 -8 48 -31 63 -54 35z m35 -79 c-3 -8 -6 -5 -6 6 -1 11 2 17 5 13 3 -3 4 -12 1 -19z"/> <path d="M1363 2548 c-56 -15 -80 -56 -88 -150 -3 -46 -9 -96 -11 -113 -6 -41 -56 -85 -97 -85 -36 0 -57 12 -138 81 -107 92 -146 90 -253 -11 -105 -100 -130 -139 -124 -194 4 -36 16 -57 66 -115 34 -38 66 -80 72 -92 17 -30 4 -81 -28 -112 -24 -22 -40 -27 -131 -36 -164 -17 -185 -40 -188 -202 -2 -134 8 -177 45 -210 25 -23 43 -28 113 -34 131 -10 142 -13 172 -45 29 -33 35 -76 15 -113 -6 -12 -37 -52 -69 -89 -92 -107 -90 -147 14 -255 85 -90 132 -123 174 -123 43 0 64 11 133 70 111 94 138 101 195 48 33 -32 35 -37 45 -137 16 -164 39 -185 201 -188 129 -2 174 7 208 41 23 23 27 39 37 143 11 112 13 118 43 145 34 30 77 36 114 16 12 -6 52 -37 89 -69 107 -92 147 -90 255 14 90 85 123 132 123 174 0 43 -11 64 -70 133 -87 103 -95 126 -64 179 25 42 44 49 155 61 163 16 183 39 186 207 3 192 -20 226 -159 238 -46 3 -96 9 -113 11 -41 6 -85 56 -85 97 0 36 12 57 81 138 93 109 91 146 -18 260 -98 103 -131 123 -188 116 -37 -4 -57 -15 -113 -65 -101 -90 -147 -100 -204 -47 -21 19 -27 37 -32 87 -14 138 -19 159 -39 184 -11 15 -34 32 -51 39 -35 15 -223 17 -273 3z m284 -34 c34 -21 42 -44 53 -151 12 -117 40 -168 96 -179 53 -10 83 3 167 72 123 100 141 99 263 -18 126 -121 129 -153 29 -263 -91 -101 -99 -177 -23 -240 28 -23 25 -22 99 -29 30 -3 77 -8 104 -11 65 -6 94 -37 97 -103 2 -57 2 -156 0 -199 -3 -46 -50 -79 -127 -87 -144 -15 -152 -17 -187 -53 -28 -29 -33 -41 -33 -82 0 -44 5 -54 68 -131 105 -129 103 -144 -22 -271 -87 -87 -102 -95 -156 -89 -22 2 -108 61 -100 68 3 3 -3 10 -14 16 -107 63 -136 68 -188 36 -46 -28 -60 -62 -68 -174 -7 -91 -10 -102 -35 -128 l-28 -28 -139 0 c-181 1 -187 5 -202 162 -11 114 -22 139 -73 168 -61 34 -113 18 -199 -60 -98 -90 -130 -92 -216 -16 -12 11 -20 23 -17 28 3 5 2 7 -3 6 -12 -4 -63 44 -57 54 3 5 1 7 -4 6 -14 -4 -51 41 -59 70 -7 31 9 61 84 155 52 64 63 84 63 115 -1 90 -41 120 -190 137 -106 12 -116 15 -137 41 -24 30 -25 37 -25 190 -1 142 17 159 181 175 101 9 127 23 157 81 30 59 21 84 -73 195 -88 105 -85 133 29 250 81 83 128 111 167 98 11 -3 59 -38 107 -77 87 -70 88 -70 138 -65 42 4 55 10 81 40 29 34 32 44 42 147 12 133 23 151 106 161 74 10 218 0 244 -17z"/> <path d="M1380 1943 c-205 -56 -340 -235 -337 -448 1 -152 49 -243 197 -378 9 -8 45 -26 82 -40 278 -112 585 58 630 348 28 184 -44 347 -204 461 -88 63 -252 88 -368 57z m206 -14 c225 -41 385 -273 346 -502 -40 -233 -270 -399 -498 -360 -241 42 -403 262 -366 499 16 98 57 177 133 249 108 103 236 141 385 114z"/> <path d="M1356 1664 c-13 -13 -16 -42 -16 -164 0 -122 3 -151 16 -164 8 -9 21 -16 29 -16 24 0 265 144 271 162 3 10 3 26 0 36 -6 18 -247 162 -271 162 -8 0 -21 -7 -29 -16z m141 -66 c48 -28 98 -56 110 -62 16 -8 21 -17 17 -30 -5 -13 -2 -17 7 -11 8 3 -2 -7 -21 -24 -19 -17 -44 -33 -54 -37 -11 -4 -49 -24 -84 -46 -35 -21 -74 -38 -86 -36 -20 3 -21 8 -22 143 -1 77 0 143 3 148 10 17 46 4 130 -45z"/> <path d="M2654 2360 c-36 -14 -83 -70 -90 -105 -11 -60 4 -106 47 -147 36 -34 45 -38 94 -38 30 0 55 -1 55 -3 0 -2 16 -50 36 -106 57 -164 79 -294 79 -461 0 -167 -22 -297 -79 -460 -30 -88 -112 -257 -135 -283 -4 -4 -13 22 -20 58 -14 70 -38 98 -61 70 -10 -12 -8 -35 10 -112 12 -54 28 -104 35 -111 9 -11 31 -8 115 12 113 27 146 51 104 74 -14 8 -99 -8 -124 -23 -15 -10 -12 4 9 33 57 82 137 280 169 417 49 216 51 401 6 625 -17 80 -55 202 -84 262 -17 36 -17 38 1 54 44 40 49 137 10 192 -36 52 -118 76 -177 52z m105 -27 c15 -6 20 -12 13 -17 -6 -3 -13 -2 -17 4 -3 5 -24 10 -45 10 -30 0 -46 -7 -76 -35 -35 -33 -36 -37 -32 -85 3 -27 1 -50 -3 -50 -5 0 -10 3 -10 8 -7 45 -6 68 3 90 6 15 12 31 12 35 1 5 19 19 41 33 40 24 65 26 114 7z m12 -52 c60 -61 24 -151 -61 -151 -56 0 -90 34 -90 89 0 32 6 44 31 65 41 35 83 34 120 -3z m47 7 c6 -13 14 -34 17 -48 7 -24 7 -24 -9 -5 -8 11 -16 24 -16 29 0 5 -7 18 -17 28 -14 15 -14 18 -1 18 8 0 20 -10 26 -22z m6 -129 c-7 -15 -18 -31 -24 -34 -15 -9 -12 -39 10 -91 12 -26 20 -57 18 -68 -2 -11 -11 4 -23 40 -10 32 -25 63 -32 67 -8 5 -11 11 -9 15 2 4 -17 6 -42 4 -48 -3 -112 25 -112 49 0 6 11 1 25 -10 14 -11 39 -22 55 -26 50 -11 130 43 130 89 0 17 2 18 9 7 6 -10 5 -25 -5 -42z m30 -259 c3 -19 10 -50 15 -67 6 -20 6 -33 0 -33 -5 0 -9 8 -9 19 0 10 -6 36 -14 57 -7 22 -11 45 -8 52 6 18 9 13 16 -28z m36 -120 c0 -5 -2 -10 -4 -10 -3 0 -8 5 -11 10 -3 6 -1 10 4 10 6 0 11 -4 11 -10z m0 -30 c0 -5 -2 -10 -4 -10 -3 0 -8 5 -11 10 -3 6 -1 10 4 10 6 0 11 -4 11 -10z m7 -72 c-3 -8 -6 -5 -6 6 -1 11 2 17 5 13 3 -3 4 -12 1 -19z m15 -152 c0 -64 -2 -120 -6 -123 -3 -3 -6 34 -7 83 0 49 -3 109 -5 134 -4 33 -2 42 6 34 6 -7 11 -57 12 -128z m-2 -146 c0 -5 -4 -10 -10 -10 -5 0 -10 5 -10 10 0 6 5 10 10 10 6 0 10 -4 10 -10z m-7 -62 c-7 -46 -13 -48 -13 -5 0 21 4 37 9 37 5 0 7 -15 4 -32z m-20 -88 c-3 -12 -8 -19 -11 -16 -5 6 5 36 12 36 2 0 2 -9 -1 -20z m-23 -111 c-13 -54 -54 -159 -46 -119 2 14 9 41 15 60 6 19 16 57 23 84 6 27 14 44 16 37 2 -6 -2 -34 -8 -62z m-59 -167 c-5 -9 -24 -48 -42 -87 -18 -38 -37 -73 -41 -76 -5 -3 -11 -23 -15 -43 l-6 -38 39 6 c21 3 53 8 69 12 17 4 27 4 23 0 -3 -4 -12 -9 -20 -10 -7 -2 -20 -6 -28 -9 -31 -13 -140 -35 -144 -29 -9 18 -27 113 -23 124 3 7 8 -2 12 -20 4 -18 12 -35 16 -38 13 -8 49 6 49 19 0 6 8 20 18 31 20 23 82 155 82 175 0 7 4 9 10 6 6 -4 6 -13 1 -23z m-188 -112 c3 -11 1 -20 -4 -20 -5 0 -9 4 -9 9 0 5 -3 17 -7 27 -4 11 -3 15 4 11 6 -4 13 -16 16 -27z"/> <path d="M270 2333 c-30 -7 -68 -14 -84 -17 -40 -6 -54 -22 -40 -44 13 -20 33 -21 98 -5 73 19 70 26 -9 20 -38 -2 -59 -3 -45 0 14 3 30 8 35 13 8 6 100 21 129 21 6 0 11 -6 12 -13 2 -7 8 -39 14 -71 12 -60 8 -105 -4 -52 -16 67 -26 70 -21 5 7 -70 21 -95 49 -84 15 6 17 15 12 53 -3 25 -7 53 -9 61 -2 8 -7 36 -11 62 -12 71 -21 75 -126 51z m130 -193 c0 -5 -2 -10 -4 -10 -3 0 -8 5 -11 10 -3 6 -1 10 4 10 6 0 11 -4 11 -10z"/> <path d="M267 2233 c-146 -231 -226 -574 -198 -845 19 -181 58 -341 109 -446 19 -40 19 -41 1 -58 -44 -40 -49 -137 -10 -192 23 -32 85 -62 129 -62 68 1 142 77 142 148 0 87 -63 152 -148 152 -29 0 -52 1 -52 3 0 2 -16 50 -36 106 -41 120 -61 206 -72 311 -28 286 23 547 155 799 55 104 65 140 22 79 -13 -18 -27 -36 -32 -39 -5 -3 -8 -9 -8 -13 1 -3 -6 -21 -16 -39 -9 -17 -18 -38 -19 -46 -3 -16 -22 -37 -28 -30 -4 4 10 34 68 147 33 64 28 80 -7 25z m-75 -240 c-14 -36 -18 -41 -20 -23 -2 13 2 26 8 30 6 4 11 10 11 14 -3 23 0 36 8 31 6 -3 3 -24 -7 -52z m-44 -118 c0 -14 -4 -28 -9 -31 -10 -6 -12 17 -3 40 9 22 12 20 12 -9z m-27 -134 c-6 -31 -12 -78 -13 -104 -1 -44 -18 -81 -18 -40 0 39 34 237 38 219 2 -10 -1 -44 -7 -75z m-22 -253 c0 -49 -3 -75 -8 -63 -4 11 -6 36 -5 55 1 19 3 47 3 63 1 15 3 27 6 27 3 0 5 -37 4 -82z m24 -230 c8 -49 11 -88 7 -88 -6 0 -25 109 -36 200 -4 35 -3 35 6 5 5 -16 15 -69 23 -117z m26 -143 c0 -20 0 -20 -9 0 -5 11 -9 27 -9 35 -1 13 0 13 9 0 5 -8 9 -24 9 -35z m21 -40 c0 -8 -4 -15 -8 -15 -5 0 -9 7 -9 15 0 8 4 15 9 15 4 0 8 -7 8 -15z m47 -125 c16 -30 24 -36 63 -41 25 -3 56 -11 70 -18 24 -11 24 -11 -7 -5 -61 11 -91 7 -122 -16 -33 -23 -54 -23 -26 0 20 16 19 34 -5 100 -23 62 -26 104 -4 50 8 -19 22 -51 31 -70z m146 -111 c9 -12 17 -38 17 -59 0 -30 -6 -44 -31 -64 -41 -35 -83 -34 -120 3 -48 49 -37 120 23 146 38 16 85 5 111 -26z m37 5 c44 -81 -14 -185 -103 -186 -38 -1 -98 22 -79 29 8 3 19 0 25 -6 24 -24 95 -10 136 27 22 21 27 107 7 137 -9 14 -13 25 -8 25 5 0 15 -12 22 -26z m-214 -56 c0 -29 4 -64 8 -78 4 -15 -1 -10 -12 12 -18 33 -19 64 -7 106 8 22 10 13 11 -40z"/> <path d="M2144 421 c-51 -31 -74 -72 -74 -130 0 -28 -1 -51 -3 -51 -2 0 -50 -16 -106 -36 -164 -57 -294 -79 -461 -79 -167 0 -297 22 -460 79 -88 30 -257 112 -283 135 -4 4 22 13 58 20 70 14 98 38 70 61 -12 10 -35 8 -112 -10 -54 -12 -104 -28 -111 -35 -11 -9 -8 -31 12 -115 27 -113 51 -146 74 -104 8 14 -8 99 -23 124 -10 16 5 12 36 -11 42 -29 202 -103 289 -132 178 -60 397 -86 570 -67 178 19 332 58 442 110 34 16 39 16 50 2 18 -22 72 -42 110 -42 50 0 100 31 125 80 29 54 29 94 0 144 -40 71 -136 98 -203 57z m72 -10 c-7 -11 -56 -21 -56 -10 0 4 8 10 18 12 30 8 43 7 38 -2z m-1351 -11 c-3 -5 -12 -10 -18 -10 -7 0 -6 4 3 10 19 12 23 12 15 0z m1410 0 c-3 -5 -12 -7 -20 -3 -21 7 -19 13 6 13 11 0 18 -4 14 -10z m-1480 -20 c-3 -5 -15 -10 -26 -10 -34 0 -36 -31 -3 -57 28 -22 16 -33 -15 -14 -37 24 -53 -22 -30 -88 6 -18 9 -34 6 -37 -6 -7 -37 97 -44 147 -6 40 -1 45 48 54 18 3 35 8 38 11 9 9 32 4 26 -6z m1343 0 c-35 -21 -40 -115 -8 -159 23 -33 23 -54 0 -26 -14 17 -51 20 -78 6 -49 -25 -113 -47 -182 -61 -30 -7 -63 -16 -72 -21 -11 -6 -18 -5 -18 1 0 5 19 14 43 20 88 22 153 43 194 61 24 10 47 19 52 19 12 0 21 25 21 60 0 27 21 88 36 103 4 4 12 7 18 7 6 0 3 -5 -6 -10z m187 -25 c24 -52 14 -59 -12 -8 -12 24 -18 43 -14 43 5 0 16 -16 26 -35z m-41 -6 c35 -41 34 -83 -3 -120 -73 -72 -186 3 -146 98 16 38 39 52 87 53 28 0 42 -7 62 -31z m56 -84 c0 -14 -4 -25 -9 -25 -4 0 -6 11 -3 25 2 14 6 25 8 25 2 0 4 -11 4 -25z m-1461 -22 c25 -12 50 -23 54 -23 5 0 23 -7 40 -15 18 -8 64 -26 102 -40 54 -19 61 -23 32 -20 -21 3 -51 12 -67 20 -16 8 -35 15 -43 15 -16 0 -197 87 -197 94 0 7 23 -2 79 -31z m1431 -37 c0 -3 -4 -8 -10 -11 -5 -3 -10 -1 -10 4 0 6 5 11 10 11 6 0 10 -2 10 -4z m-110 -36 c0 -5 -9 -6 -20 -3 -11 3 -20 9 -20 13 0 5 9 6 20 3 11 -3 20 -9 20 -13z m80 10 c0 -5 -10 -10 -22 -10 -19 0 -20 2 -8 10 19 13 30 13 30 0z m-1045 -55 c11 -1 20 -3 20 -4 0 -8 153 -22 238 -22 92 -1 229 12 250 23 18 9 36 4 25 -8 -13 -12 -158 -25 -273 -24 -143 1 -238 12 -320 40 -30 10 -29 10 5 4 19 -3 44 -7 55 -9z"/> </g> </svg> 